<?xml version="1.0" standalone="no"?>
<!DOCTYPE svg PUBLIC "-//W3C//DTD SVG 20010904//EN"
 "http://www.w3.org/TR/2001/REC-SVG-20010904/DTD/svg10.dtd">
<svg version="1.0" xmlns="http://www.w3.org/2000/svg"
 width="180.000000pt" height="180.000000pt" viewBox="0 0 180.000000 180.000000"
 preserveAspectRatio="xMidYMid meet">
<metadata>
Created by potrace 1.14, written by Peter Selinger 2001-2017
</metadata>
<g transform="translate(0.000000,180.000000) scale(0.100000,-0.100000)"
fill="#000000" stroke="none">
<path d="M941 1505 l-25 -14 25 -5 c13 -2 51 -7 84 -11 70 -7 160 -45 170 -71
4 -11 32 -41 63 -69 l57 -49 5 32 c3 18 10 31 15 30 6 -2 11 7 13 18 6 41
-107 112 -220 139 -76 18 -154 18 -187 0z"/>
<path d="M905 1301 c-17 -7 -14 -9 17 -15 41 -7 95 -45 67 -46 -12 0 -18 -12
-22 -37 -4 -34 -1 -41 31 -69 22 -19 31 -33 24 -37 -6 -4 -16 -23 -22 -41 -10
-31 -8 -39 19 -82 17 -26 34 -62 37 -80 8 -45 -21 -133 -58 -179 -34 -41 -99
-85 -125 -85 -10 0 -13 -3 -8 -9 14 -13 114 3 169 27 25 12 46 17 46 12 0 -16
-103 -88 -158 -109 -29 -12 -73 -21 -98 -21 -28 0 -43 -4 -39 -10 9 -15 184
-11 230 5 48 17 58 18 50 5 -9 -14 -102 -61 -150 -75 -52 -16 -61 -45 -13 -45
68 0 164 22 207 47 147 86 251 270 251 443 0 170 -72 296 -212 370 -54 29 -75
34 -143 37 -44 1 -89 -1 -100 -6z m226 -140 c85 -70 120 -206 81 -310 -22 -55
-62 -121 -74 -121 -4 0 -3 12 4 28 6 15 11 62 11 104 1 72 -2 84 -41 161 -30
58 -42 94 -42 125 0 51 12 53 61 13z"/>
<path d="M1256 474 c-64 -58 -64 -72 0 -26 46 34 67 58 62 71 -1 5 -30 -15
-62 -45z"/>
<path d="M575 328 c33 -17 83 -37 110 -44 59 -16 165 -18 165 -4 0 6 -3 10 -6
10 -34 0 -218 36 -261 51 -77 26 -78 23 -8 -13z"/>
</g>
</svg>
